<?xml version="1.0" encoding="utf-8"?>
<!-- Generator: Adobe Illustrator 24.0.1, SVG Export Plug-In . SVG Version: 6.00 Build 0)  -->
<svg version="1.1" id="Layer_1" xmlns="http://www.w3.org/2000/svg" xmlns:xlink="http://www.w3.org/1999/xlink" x="0px" y="0px"
	 viewBox="0 0 100 125" style="enable-background:new 0 0 100 125;" xml:space="preserve">
<title>Artboard 1 copy 3</title>
<path d="M56.1,34.5c2.8-2,3.5-5.9,1.6-8.7s-5.9-3.5-8.7-1.6c-0.2,0.1-0.4,0.3-0.5,0.4l-5.7,4.5c-2.7-5.1-9-7.1-14.1-4.4
	s-7.1,9-4.4,14.1c0.6,1.1,1.4,2.1,2.3,3l-1.3,1c-2.7,2.1-3.2,6-1.1,8.8l0,0c2.1,2.7,6,3.2,8.8,1.2L56.1,34.5z"/>
<path d="M55.8,40.7l25.3-11.2c3.1-1.5,4.4-5.3,2.8-8.4c-1.4-2.9-4.8-4.2-7.8-3.1l-16.7,7.4c2,3.6,1.1,8.1-2.1,10.6l-3,2.4l0,0
	L34.9,53.5l4.8,8.8l-9.7,19.3c-1.3,2.7-1.3,5.8,0,8.5l4.3,8.6c1.3,2.5,3.8,4.1,6.6,4.1h1c4.1,0,7.4-3.4,7.4-7.5
	c0-1.2-0.3-2.3-0.8-3.4l-2.2-4.3c-0.6-1.3-0.6-2.7,0-4l7.3-14.9l16.2,30.1c2,3.6,6.5,4.9,10.1,3c3.6-1.9,4.9-6.4,3-10L55.8,40.7z"/>
</svg>
